<svg version="1.1" viewBox="0.0 0.0 200.23622047244095 106.02887139107611" fill="none" stroke="none" stroke-linecap="square" stroke-miterlimit="10" xmlns:xlink="http://www.w3.org/1999/xlink" xmlns="http://www.w3.org/2000/svg"><clipPath id="p.0"><path d="m0 0l200.23622 0l0 106.02887l-200.23622 0l0 -106.02887z" clip-rule="nonzero"/></clipPath><g clip-path="url(#p.0)"><path fill="#000000" fill-opacity="0.0" d="m0 0l200.23622 0l0 106.02887l-200.23622 0z" fill-rule="evenodd"/><path fill="#000000" d="m0.95254016 59.152866l198.55905 -11.459843l0 57.29921l-198.55905 0z" fill-rule="evenodd"/><path stroke="#000000" stroke-width="1.0" stroke-linejoin="round" stroke-linecap="butt" d="m0.95254016 59.152866l198.55905 -11.459843l0 57.29921l-198.55905 0z" fill-rule="evenodd"/><path fill="#ff0000" d="m199.5116 46.791912l-198.55905 11.459839l0 -57.29921l198.55905 0z" fill-rule="evenodd"/><path stroke="#ff0000" stroke-width="1.0" stroke-linejoin="round" stroke-linecap="butt" d="m199.5116 46.791912l-198.55905 11.459839l0 -57.29921l198.55905 0z" fill-rule="evenodd"/><path fill="#000000" fill-opacity="0.0" d="m0.95647717 0.95254016l198.55118 0l0 105.76378l-198.55118 0z" fill-rule="evenodd"/><path fill="#ffffff" d="m25.393978 45.986294l2.625 0q4.03125 0 5.78125 -1.609375q1.75 -1.609375 1.75 -4.734375q0 -3.25 -1.875 -4.625q-1.875 -1.375 -5.8125 -1.375l-2.46875 0l0 12.34375zm0 7.875l0 17.531246l-9.687501 0l0 -45.6875l12.500001 0q8.78125 0 12.96875 3.390625q4.1875 3.390627 4.1875 10.296877q0 2.34375 -0.625 4.25q-0.625 1.90625 -1.671875 3.390625q-1.046875 1.484375 -2.40625 2.59375q-1.359375 1.109375 -2.859375 1.859375q3.46875 5.5625 6.21875 9.9375q1.1875 1.875 2.296875 3.6562462q1.109375 1.78125 1.984375 3.1875q0.875 1.40625 1.4375 2.25l0.53125 0.875l-10.75 0l-9.90625 -17.531246l-4.21875 0zm37.8125 0q0 5.21875 1.4687462 7.859375q1.46875 2.6406212 4.78125 2.6406212q3.28125 0 4.75 -2.6562462q1.46875 -2.65625 1.46875 -7.84375q0 -5.21875 -1.46875 -7.796875q-1.46875 -2.578125 -4.8125 -2.578125q-3.28125 0 -4.734375 2.578125q-1.4531212 2.578125 -1.4531212 7.796875zm22.187496 0q0 4.375 -1.109375 7.75q-1.109375 3.3749962 -3.1875 5.687496q-2.078125 2.3125 -5.0625 3.515625q-2.984375 1.203125 -6.703125 1.203125q-3.46875 0 -6.374996 -1.203125q-2.90625 -1.203125 -5.015625 -3.515625q-2.109375 -2.3125 -3.296875 -5.687496q-1.1875 -3.375 -1.1875 -7.75q0 -4.34375 1.109375 -7.71875q1.109375 -3.375 3.1875 -5.671875q2.078125 -2.296875 5.046875 -3.484375q2.9687462 -1.1875 6.718746 -1.1875q3.46875 0 6.375 1.1875q2.90625 1.1875 5.015625 3.484375q2.109375 2.296875 3.296875 5.671875q1.1875 3.375 1.1875 7.71875zm32.46875 -28.156252l9.78125 0l-14.25 45.6875l-10.5625 0l-14.21875 -45.6875l9.78125 0l7.75 27.500002q0.15625 0.53125 0.421875 1.78125q0.265625 1.25 0.5625 2.75q0.296875 1.5 0.578125 3.0q0.28125 1.5 0.4375 2.53125q0.15625 -1.03125 0.4375 -2.53125q0.28125 -1.5 0.59375 -2.984375q0.3125 -1.484375 0.609375 -2.734375q0.296875 -1.25 0.453125 -1.8125l7.625 -27.500002zm14.375008 1.71875q0 -1.34375 0.40625 -2.234375q0.40625 -0.890625 1.109375 -1.4375q0.703125 -0.546875 1.65625 -0.765625q0.953125 -0.21875 2.015625 -0.21875q1.0625 0 2.0 0.21875q0.9375 0.21875 1.640625 0.765625q0.703125 0.546875 1.125 1.4375q0.421875 0.890625 0.421875 2.234375q0 1.3125 -0.421875 2.21875q-0.421875 0.90625 -1.125 1.453125q-0.703125 0.546875 -1.640625 0.78125q-0.9375 0.2343769 -2.0 0.2343769q-1.0625 0 -2.015625 -0.2343769q-0.953125 -0.234375 -1.65625 -0.78125q-0.703125 -0.546875 -1.109375 -1.453125q-0.40625 -0.90625 -0.40625 -2.21875zm9.9375 43.96875l-9.53125 0l0 -34.937496l9.53125 0l0 34.937496zm27.40625 0l-9.65625 0l0 -37.624996l-11.46875 0l0 -8.062502l32.5625 0l0 8.062502l-11.4375 0l0 37.624996z" fill-rule="nonzero"/></g></svg>